<?xml version="1.0" encoding="UTF-8"?>
<svg id="Layer_1" data-name="Layer 1" xmlns="http://www.w3.org/2000/svg" viewBox="0 0 500 500">
  <defs>
    <style>
      .cls-1 {
        fill: #ffc100;
      }

      .cls-1, .cls-2 {
        stroke-width: 0px;
      }

      .cls-2 {
        fill: #009dff;
      }
    </style>
  </defs>
  <g id="g14">
    <g>
      <g>
        <g id="g44">
          <g id="path46">
            <path class="cls-2" d="M185.85,186.73c-41.44,0-75.15-33.71-75.15-75.15s33.71-75.15,75.15-75.15,75.15,33.71,75.15,75.15c0,5.91-4.79,10.71-10.71,10.71s-10.71-4.79-10.71-10.71c0-29.62-24.1-53.72-53.72-53.72s-53.72,24.1-53.72,53.72,24.1,53.72,53.72,53.72c12.39,0,24.47-4.32,34.04-12.15,4.58-3.75,11.32-3.08,15.08,1.49,3.75,4.58,3.08,11.32-1.49,15.08-13.38,10.97-30.29,17.01-47.62,17.01h0Z"/>
          </g>
        </g>
        <g id="g48">
          <g id="path50">
            <path class="cls-2" d="M314.72,186.73c-41.44,0-75.15-33.71-75.15-75.15,0-5.91,4.79-10.71,10.71-10.71s10.71,4.79,10.71,10.71c0,29.62,24.1,53.72,53.72,53.72s53.72-24.1,53.72-53.72-24.1-53.72-53.72-53.72c-13.27,0-26,4.87-35.86,13.72-4.4,3.95-11.18,3.59-15.13-.82-3.95-4.4-3.59-11.18.82-15.13,13.8-12.38,31.61-19.2,50.17-19.2,41.44,0,75.15,33.71,75.15,75.15s-33.71,75.15-75.15,75.15h0Z"/>
          </g>
        </g>
        <g id="g52">
          <g id="path54">
            <path class="cls-1" d="M208.36,111.13c0,12.69-10.29,22.98-22.98,22.98s-22.98-10.29-22.98-22.98,10.29-22.98,22.98-22.98,22.98,10.29,22.98,22.98"/>
          </g>
        </g>
        <g id="g56">
          <g id="path58">
            <path class="cls-1" d="M337.71,111.13c0,12.69-10.29,22.98-22.98,22.98s-22.98-10.29-22.98-22.98,10.29-22.98,22.98-22.98,22.98,10.29,22.98,22.98"/>
          </g>
        </g>
      </g>
      <g id="g60">
        <g id="path62">
          <path class="cls-2" d="M193.39,217.56c-2.22,0-4.46-.69-6.38-2.11-4.75-3.53-5.74-10.24-2.21-14.99l33.42-44.99c3.53-4.75,10.24-5.74,14.99-2.21,4.75,3.53,5.74,10.24,2.21,14.99l-33.42,44.99c-2.1,2.83-5.33,4.33-8.61,4.33Z"/>
        </g>
      </g>
    </g>
    <g>
      <g id="g20">
        <g id="path22">
          <path class="cls-2" d="M305.32,383.78c-4.43.07-8.58-1.02-12.17-2.98-.64-.35-1.38-.5-2.1-.38l-13.14,2.14c-.57.09-1.03-.47-.83-1.01l4.63-12.22c.25-.67.29-1.4.06-2.08-1-2.97-1.45-6.2-1.23-9.58.81-11.99,10.51-21.75,22.49-22.62,14.66-1.07,26.71,10.62,26.24,25.15-.41,12.88-11.08,23.37-23.97,23.59M304.89,311.53c-26.31,0-47.86,21.54-47.86,47.86s21.54,47.86,47.86,47.86,47.86-21.35,48.05-47.66c-.19-26.5-21.73-48.05-48.05-48.05"/>
        </g>
      </g>
      <g id="g24">
        <g id="path26">
          <path class="cls-2" d="M13.97,407.43c-6.67,0-12.01-5.34-12.01-11.82v-73.59c0-6.49,5.34-11.63,12.01-11.63,6.29,0,11.63,5.15,11.63,11.63v73.59c0,6.49-5.34,11.82-11.63,11.82M13.97,300.67c-6.67,0-12.01-5.34-12.01-11.63v-.95c0-6.67,5.34-11.82,12.01-11.82,6.29,0,11.63,5.15,11.63,11.82v.95c0,6.29-5.34,11.63-11.63,11.63"/>
        </g>
      </g>
      <g id="g28">
        <g id="path30">
          <path class="cls-2" d="M132.74,359.58v36.03c0,6.29-4.96,11.44-11.25,11.44s-11.44-5.15-11.44-11.44v-36.03c0-13.53-9.92-24.4-21.93-24.4-14.87,0-22.5,14.87-22.5,28.03v32.41c0,6.29-5.15,11.44-11.44,11.44s-11.44-5.15-11.44-11.44v-72.83c0-6.29,5.15-11.44,11.44-11.44,4.96,0,9.15,3.24,10.68,7.82,6.86-4.39,14.68-6.86,23.26-6.86,24.6,0,44.61,21.17,44.61,47.28"/>
        </g>
      </g>
      <g id="g32">
        <g id="path34">
          <path class="cls-1" d="M221.21,364.16c0-10.1-9.72-18.87-20.78-18.87h-29.93v40.04h31.46c10.1,0,19.26-10.1,19.26-21.17M189.75,285.61h-19.26v37.18h21.73c9.34-1.33,16.78-9.34,16.78-19.07,0-10.29-8.2-18.11-19.26-18.11M243.71,364.16c0,23.64-19.07,43.66-41.75,43.66h-41.71c-6.57,0-12.18-3.72-12.18-11.14l-.06-121.55c0-7.31,5.02-12.01,11.54-12.01h30.21c23.45,0,41.75,17.73,41.75,40.61,0,9.34-3.24,18.11-8.58,25.17,12.39,7.43,20.78,20.59,20.78,35.27"/>
        </g>
      </g>
      <g id="g36">
        <g id="path38">
          <path class="cls-2" d="M417.19,395.42c0,6.49-5.15,11.44-11.44,11.44-1.72,0-3.24,0-4.96-.19-6.29-.95-12.39-3.62-16.78-8.58-3.81-4.39-6.48-11.25-6.48-17.16v-47.05c0-.55-.45-1-1-1h-6.9c-5.84,0-10.96-4.25-11.66-10.04-.83-6.91,4.6-12.83,11.35-12.83h7.2c.55,0,1-.45,1-1v-35.12c0-5.84,4.25-10.96,10.04-11.66,6.91-.83,12.83,4.6,12.83,11.35v35.41c0,.55.45,1,1,1h4.99c5.84,0,10.96,4.25,11.66,10.04.83,6.91-4.6,12.83-11.35,12.83h-5.29c-.55,0-1,.45-1,1v44.38c.38,1.52,0,3.82,1.34,4.96.95.95,2.67.76,4,.76,6.29,0,11.44,5.15,11.44,11.44"/>
        </g>
      </g>
      <g id="g40">
        <g id="path42">
          <path class="cls-2" d="M464.66,407.81c-12.2,0-24.4-4.96-30.69-10.86-4.58-4.19-4.96-11.44-.58-16.01,4.19-4.76,11.44-4.96,16.02-.76,3.43,3.24,16.2,7.62,23.45,2.86,1.91-1.15,3.05-3.24,3.05-5.34,0-2.67-2.29-4.58-4.19-5.34-1.72-.95-4.76-.95-8.19-.95-4.58,0-9.72-.19-15.06-2.1-9.92-3.24-17.92-13.53-18.68-23.45-.95-12.01,4.19-19.45,8.58-23.64,9.53-8.77,23.45-10.1,33.55-8.39,7.62,1.33,13.35,4,18.11,8.39,4.58,4.19,4.96,11.44.76,16.02-2.48,2.67-6.1,4-9.72,3.62-1.72-.19-3.43-.76-4.96-1.72-2.67-1.91-4.58-3.24-8.01-3.81-5.72-.95-16.4-.57-15.63,7.62.19.95,1.91,3.43,3.43,4,1.91.57,4.76.57,7.82.57,4.96.19,11.25.19,17.54,3.05,10.49,4.77,17.35,15.06,17.35,26.12,0,9.72-4.96,18.87-13.16,24.4-6.49,4.19-13.53,5.72-20.78,5.72"/>
        </g>
      </g>
      <g>
        <path class="cls-2" d="M36.7,443.17c-1.47,4.69-3.47,9.27-6.01,13.72h-1.93l-.36-.05c-.27-.03-.51-.1-.72-.22-.66-.3-1.21-.87-1.66-1.7-1.76-3.14-3.3-7.07-4.62-11.79-1.35,5.17-3.23,9.76-5.65,13.77h-1.88l-.36-.05c-.3-.03-.57-.1-.81-.22-.69-.3-1.26-.87-1.7-1.7-4-7.14-6.65-15.59-7.94-25.33h3.68c.99,0,1.84.37,2.56,1.12.63.66,1.03,1.45,1.21,2.38.84,4.99,2.03,9.43,3.59,13.32.96-2.42,1.87-5.28,2.74-8.56.66-2.57,1.19-4.99,1.61-7.27h2.29c2.54,0,4.1,1.3,4.66,3.9.81,4.04,2.02,8.03,3.63,11.97,2.12-5.56,3.54-11.16,4.26-16.81h3.23c.84,0,1.51.25,2.02.76.57.54.85,1.28.85,2.24,0,.63-.34,2.21-1.03,4.75-.24.96-.54,2-.9,3.14-.24.9-.49,1.76-.76,2.6v.04Z"/>
        <path class="cls-2" d="M60.68,447.97c-1.46.78-3.92,1.17-7.35,1.17h-2.29c.6,1.79,2.11,2.69,4.53,2.69,2.24,0,4.47-.61,6.68-1.84v2.15c0,3.29-2.53,4.93-7.58,4.93-2.66,0-4.96-.93-6.9-2.78-2.09-1.97-3.14-4.47-3.14-7.49,0-3.32.94-5.99,2.83-8.03,1.82-2,4.21-3,7.17-3,2.24,0,4.17.73,5.78,2.2,1.7,1.52,2.56,3.48,2.56,5.87,0,1.97-.76,3.35-2.29,4.12ZM54.23,441.02c-.96,0-1.75.36-2.38,1.07-.63.66-.97,1.47-1.03,2.42h1.48c1.94,0,3.26-.1,3.95-.31.63-.15.94-.46.94-.94,0-1.49-.99-2.24-2.96-2.24Z"/>
        <path class="cls-2" d="M104.76,454.52c-1.76,1.53-3.98,2.29-6.64,2.29h-2.83c-5.23,0-7.85-2.27-7.85-6.81v-19.15c.81-.3,1.97-.6,3.5-.9,1.64-.3,2.97-.45,3.99-.45h3.14c2.69,0,4.86.66,6.5,1.97,1.7,1.38,2.56,3.2,2.56,5.47,0,2.6-1.03,4.42-3.09,5.47,1.05.63,1.9,1.47,2.56,2.51.66,1.05.99,2.08.99,3.09,0,2.72-.94,4.89-2.82,6.5ZM99.65,435.55c-.6-.33-1.36-.49-2.29-.49h-1.93c-.18,0-.42.01-.72.04l-.45.09-.45.04v4.62h3.36c2.33,0,3.5-.84,3.5-2.51,0-.81-.34-1.41-1.03-1.79ZM100.18,445.78c-.57-.42-1.51-.63-2.83-.63h-3.5v4.66c0,.66.55.99,1.66.99h2.06c2.36,0,3.54-.87,3.54-2.6,0-1.14-.31-1.94-.94-2.42Z"/>
        <path class="cls-2" d="M134.89,447.48c0,6.4-3,9.6-9.01,9.6-2.63,0-4.77-.81-6.41-2.42-1.76-1.7-2.65-4-2.65-6.9v-11.52h1.52c3.02,0,4.53,1.35,4.53,4.04v7.04c0,2.87,1.08,4.31,3.23,4.31,1.79,0,2.69-1.33,2.69-3.99v-11.39h1.52c3.05,0,4.57,1.35,4.57,4.04v7.22Z"/>
        <path class="cls-2" d="M151.25,435.1c-.69.69-1.51,1.03-2.47,1.03s-1.72-.34-2.38-1.03c-.66-.66-.99-1.45-.99-2.38s.33-1.73.99-2.42c.66-.66,1.45-.99,2.38-.99s1.78.33,2.47.99c.69.69,1.03,1.49,1.03,2.42s-.34,1.72-1.03,2.38ZM155.65,453.35c0,1.25-.27,2.15-.81,2.69-.54.54-1.42.8-2.65.8-4.24,0-6.37-2.2-6.37-6.59v-13.63h2.02c2.66,0,3.99,1.41,3.99,4.21v8.92c0,1.28.76,1.93,2.29,1.93h1.52v1.66Z"/>
        <path class="cls-2" d="M174.25,453.35c0,2.33-1.28,3.49-3.86,3.49-4.45,0-6.68-2.2-6.68-6.59v-20.45h1.97c2.69,0,4.04,1.28,4.04,3.85v16.1c0,1.28.87,1.93,2.6,1.93h1.93v1.66Z"/>
        <path class="cls-2" d="M199.67,447.21c0,6.58-3.29,9.86-9.86,9.86-2.69,0-4.95-1.02-6.77-3.05-1.82-1.97-2.73-4.38-2.73-7.22,0-3.41.79-6.08,2.38-8.03,1.61-2,3.9-3,6.86-3,1.52,0,2.9.58,4.12,1.75v-8.97h2.11c2.6,0,3.9,1.3,3.9,3.9v14.75ZM189.59,441.07c-1.02,0-1.84.46-2.47,1.39-.6.9-.9,2.05-.9,3.45,0,1.76.4,3.2,1.21,4.31.78,1.07,1.76,1.61,2.96,1.61,2.15,0,3.23-1.61,3.23-4.84,0-3.95-1.35-5.92-4.04-5.92Z"/>
        <path class="cls-2" d="M229.31,456.67c-.99,0-1.84-.34-2.56-1.03-.81-.78-1.21-1.79-1.21-3.05v-23h2.96c.87,0,1.64.31,2.33.94.75.66,1.12,1.47,1.12,2.42v23.72h-2.64Z"/>
        <path class="cls-2" d="M258.64,456.67c-1.23,0-2.23-.36-3-1.07-.75-.69-1.12-1.59-1.12-2.69v-7.62c0-2.66-1.07-3.99-3.23-3.99-.84,0-1.51.31-2.02.94-.54.69-.81,1.6-.81,2.73v11.7h-2.06c-1.17,0-2.12-.36-2.87-1.07-.72-.72-1.08-1.62-1.08-2.69v-8.3c0-2.39.75-4.41,2.24-6.05,1.67-1.85,4-2.78,7-2.78,2.51,0,4.6.79,6.27,2.38,1.74,1.68,2.6,3.92,2.6,6.73v11.79h-1.92Z"/>
        <path class="cls-2" d="M270.65,437.66c0-1.43.43-2.75,1.3-3.95.87-1.19,1.84-1.79,2.92-1.79h1.79v4.31h6.63v2.6c0,.72-.28,1.35-.85,1.88-.69.66-1.59.99-2.69.99h-3.09v6.91c0,1.85.78,2.78,2.33,2.78,1.07,0,2.51-.22,4.3-.67v2.33c0,2.57-1.63,3.86-4.89,3.86-5.17,0-7.76-2.59-7.76-7.76v-11.48Z"/>
        <path class="cls-2" d="M306.29,447.97c-1.47.78-3.92,1.17-7.35,1.17h-2.29c.6,1.79,2.11,2.69,4.53,2.69,2.24,0,4.47-.61,6.68-1.84v2.15c0,3.29-2.53,4.93-7.58,4.93-2.66,0-4.96-.93-6.91-2.78-2.09-1.97-3.14-4.47-3.14-7.49,0-3.32.94-5.99,2.82-8.03,1.82-2,4.22-3,7.17-3,2.24,0,4.17.73,5.78,2.2,1.7,1.52,2.56,3.48,2.56,5.87,0,1.97-.76,3.35-2.29,4.12ZM299.84,441.02c-.96,0-1.75.36-2.38,1.07-.63.66-.97,1.47-1.03,2.42h1.48c1.94,0,3.26-.1,3.95-.31.63-.15.94-.46.94-.94,0-1.49-.99-2.24-2.96-2.24Z"/>
        <path class="cls-2" d="M328.44,453.35c0,2.33-1.29,3.49-3.86,3.49-4.45,0-6.68-2.2-6.68-6.59v-20.45h1.97c2.69,0,4.04,1.28,4.04,3.85v16.1c0,1.28.87,1.93,2.6,1.93h1.93v1.66Z"/>
        <path class="cls-2" d="M346.38,453.35c0,2.33-1.29,3.49-3.86,3.49-4.45,0-6.68-2.2-6.68-6.59v-20.45h1.97c2.69,0,4.04,1.28,4.04,3.85v16.1c0,1.28.87,1.93,2.6,1.93h1.93v1.66Z"/>
        <path class="cls-2" d="M359.61,435.1c-.69.69-1.51,1.03-2.46,1.03s-1.72-.34-2.38-1.03c-.66-.66-.99-1.45-.99-2.38s.33-1.73.99-2.42c.66-.66,1.45-.99,2.38-.99s1.78.33,2.46.99c.69.69,1.03,1.49,1.03,2.42s-.34,1.72-1.03,2.38ZM364,453.35c0,1.25-.27,2.15-.81,2.69-.54.54-1.42.8-2.65.8-4.24,0-6.37-2.2-6.37-6.59v-13.63h2.02c2.66,0,3.99,1.41,3.99,4.21v8.92c0,1.28.76,1.93,2.29,1.93h1.52v1.66Z"/>
        <path class="cls-2" d="M389.64,449.27c0,.48.02.91.05,1.3.06,1.2.09,2.05.09,2.56,0,2.75-.84,5.02-2.51,6.81-1.82,1.94-4.32,2.92-7.49,2.92-2.12,0-3.87-.48-5.24-1.43-1.35-.93-2.02-2.06-2.02-3.41v-2.78c2.63,1.37,4.93,2.06,6.91,2.06,2.93,0,4.39-1.27,4.39-3.81v-.45c-1.11,1.02-2.57,1.52-4.39,1.52-2.51,0-4.56-.78-6.14-2.33-1.62-1.58-2.42-3.6-2.42-6.05,0-2.96.9-5.41,2.69-7.35,1.91-2.03,4.47-3.05,7.67-3.05,2.54,0,4.59.85,6.14,2.56,1.53,1.64,2.29,3.81,2.29,6.5v4.44ZM378.08,442.5c-.72.81-1.08,1.84-1.08,3.09,0,1.08.3,1.96.9,2.65.6.72,1.36,1.07,2.29,1.07,1.02,0,1.84-.37,2.47-1.12.66-.78.99-1.81.99-3.09,0-2.54-.99-3.81-2.96-3.81-1.05,0-1.91.4-2.6,1.21Z"/>
        <path class="cls-2" d="M414.89,447.97c-1.47.78-3.92,1.17-7.35,1.17h-2.29c.6,1.79,2.11,2.69,4.53,2.69,2.24,0,4.47-.61,6.68-1.84v2.15c0,3.29-2.53,4.93-7.58,4.93-2.66,0-4.96-.93-6.91-2.78-2.09-1.97-3.14-4.47-3.14-7.49,0-3.32.94-5.99,2.82-8.03,1.82-2,4.22-3,7.17-3,2.24,0,4.17.73,5.78,2.2,1.7,1.52,2.56,3.48,2.56,5.87,0,1.97-.76,3.35-2.29,4.12ZM408.43,441.02c-.96,0-1.75.36-2.38,1.07-.63.66-.97,1.47-1.03,2.42h1.48c1.94,0,3.26-.1,3.95-.31.63-.15.94-.46.94-.94,0-1.49-.99-2.24-2.96-2.24Z"/>
        <path class="cls-2" d="M442.46,456.67c-1.23,0-2.23-.36-3-1.07-.75-.69-1.12-1.59-1.12-2.69v-7.62c0-2.66-1.08-3.99-3.23-3.99-.84,0-1.51.31-2.02.94-.54.69-.81,1.6-.81,2.73v11.7h-2.06c-1.16,0-2.12-.36-2.87-1.07-.72-.72-1.07-1.62-1.07-2.69v-8.3c0-2.39.74-4.41,2.24-6.05,1.67-1.85,4-2.78,6.99-2.78,2.51,0,4.6.79,6.28,2.38,1.73,1.68,2.6,3.92,2.6,6.73v11.79h-1.93Z"/>
        <path class="cls-2" d="M470.49,443.71c-2.15-1.35-4.16-2.02-6.01-2.02-1.22,0-2.29.44-3.18,1.3-.93.87-1.39,1.91-1.39,3.14,0,1.55.42,2.81,1.26,3.77s1.96,1.43,3.36,1.43c1.1,0,2.18-.18,3.23-.54.42-.15.87-.34,1.35-.58l1.3-.63v2.82c0,1.38-.57,2.48-1.7,3.32-1.17.87-2.71,1.3-4.62,1.3-2.84,0-5.28-.97-7.31-2.92-2.06-1.97-3.09-4.41-3.09-7.31s.96-5.53,2.87-7.53c2.03-2.15,4.72-3.23,8.07-3.23,1.67,0,3.08.46,4.21,1.39,1.11.93,1.66,2.06,1.66,3.41v2.87Z"/>
        <path class="cls-2" d="M493.8,447.97c-1.47.78-3.92,1.17-7.35,1.17h-2.29c.6,1.79,2.11,2.69,4.53,2.69,2.24,0,4.47-.61,6.68-1.84v2.15c0,3.29-2.53,4.93-7.58,4.93-2.66,0-4.96-.93-6.91-2.78-2.09-1.97-3.14-4.47-3.14-7.49,0-3.32.94-5.99,2.82-8.03,1.82-2,4.22-3,7.17-3,2.24,0,4.17.73,5.78,2.2,1.7,1.52,2.56,3.48,2.56,5.87,0,1.97-.76,3.35-2.29,4.12ZM487.34,441.02c-.96,0-1.75.36-2.38,1.07-.63.66-.97,1.47-1.03,2.42h1.48c1.94,0,3.26-.1,3.95-.31.63-.15.94-.46.94-.94,0-1.49-.99-2.24-2.96-2.24Z"/>
      </g>
    </g>
  </g>
</svg>